<?xml version="1.0" encoding="iso-8859-1"?>
<!-- Uploaded to: SVG Repo, www.svgrepo.com, Generator: SVG Repo Mixer Tools -->
<svg version="1.1" id="Layer_1" xmlns="http://www.w3.org/2000/svg" xmlns:xlink="http://www.w3.org/1999/xlink" 
	 viewBox="0 0 512 512" xml:space="preserve">
<rect x="104.868" y="251.125" style="fill:#FF931E;" width="302.274" height="250.676"/>
<path style="fill:#CCCCCC;" d="M134.486,251.123V133.049c0-67.053,53.752-122.464,120.804-122.848
	c67.326-0.387,122.222,54.272,122.222,121.511v119.411h-44.288V132.697c0-42.516-33.949-77.794-76.463-78.206
	c-42.93-0.416-77.987,34.386-77.987,77.221v119.411H134.486z"/>
<path d="M407.133,240.924h-19.421V131.712c0-35.273-13.811-68.43-38.888-93.364C323.75,13.418,290.517-0.178,255.23,0.002
	c-72.202,0.414-130.944,60.099-130.944,133.048v107.875h-19.421c-5.633,0-10.199,4.566-10.199,10.199v250.677
	c0,5.633,4.566,10.199,10.199,10.199h302.269c5.632,0,10.199-4.566,10.199-10.199V251.123
	C417.332,245.49,412.766,240.924,407.133,240.924z M323.025,240.924H188.973V131.712c0-17.993,7.064-34.898,19.889-47.601
	c12.822-12.699,29.768-19.583,47.8-19.421c36.593,0.355,66.362,30.863,66.362,68.007v108.227H323.025z M144.685,133.049
	c0-61.765,49.644-112.299,110.663-112.649c0.22-0.002,0.434-0.002,0.655-0.002c29.563,0,57.4,11.498,78.439,32.416
	c21.197,21.077,32.871,49.097,32.871,78.898v109.212h-23.891V132.697c0-48.284-38.832-87.943-86.564-88.405
	c-23.52-0.232-45.63,8.767-62.351,25.326c-16.724,16.562-25.935,38.615-25.935,62.094v109.212h-23.889V133.049z M396.934,491.601
	h-281.87V261.323h281.87V491.601z"/>
<path d="M255.999,346.501c5.632,0,10.199-4.566,10.199-10.199v-9.799c0-5.633-4.567-10.199-10.199-10.199
	c-5.633,0-10.199,4.566-10.199,10.199v9.799C245.8,341.935,250.366,346.501,255.999,346.501z"/>
<path d="M255.999,438.565c5.632,0,10.199-4.566,10.199-10.199v-55.347c0-5.633-4.567-10.199-10.199-10.199
	c-5.633,0-10.199,4.566-10.199,10.199v55.347C245.8,433.999,250.366,438.565,255.999,438.565z"/>
</svg>